<svg width="216" height="118" viewBox="0 0 216 118" fill="none" xmlns="http://www.w3.org/2000/svg">
<path d="M7.33339 91.3521C7.21793 90.2536 8.01486 89.2694 9.11338 89.154L42.9251 85.6002C44.0236 85.4848 45.0077 86.2817 45.1232 87.3802L47.9243 114.031L10.1345 118.003L7.33339 91.3521Z" fill="#FFB59E" fill-opacity="0.2"/>
<path d="M47.0938 67.8618C46.9783 66.7633 47.7752 65.7792 48.8738 65.6637L82.6954 62.109C83.7939 61.9935 84.778 62.7904 84.8935 63.889L89.7021 109.64L51.9024 113.613L47.0938 67.8618Z" fill="#FFB59E" fill-opacity="0.4"/>
<path d="M85.8614 34.8309C85.7459 33.7324 86.5429 32.7482 87.6414 32.6328L121.463 29.078C122.562 28.9625 123.546 29.7595 123.661 30.858L131.48 105.249L93.6802 109.222L85.8614 34.8309Z" fill="#FFB59E" fill-opacity="0.6"/>
<path d="M129.647 49.5401C129.531 48.4416 130.328 47.4575 131.427 47.342L165.238 43.7883C166.337 43.6728 167.321 44.4698 167.436 45.5683L173.248 100.859L135.458 104.831L129.647 49.5401Z" fill="#FFB59E"/>
<path d="M167.4 6.95068C167.284 5.85217 168.081 4.86804 169.18 4.75258L202.991 1.19884C204.09 1.08339 205.074 1.88031 205.189 2.97883L215.016 96.4692L177.226 100.441L167.4 6.95068Z" fill="#FF571A"/>
</svg>
