<svg width="30" height="24" viewBox="0 0 30 24" fill="none" xmlns="http://www.w3.org/2000/svg">
<path d="M4.5 18H19.5L14.325 11.25L10.875 15.75L8.55 12.75L4.5 18V18M3 24C2.175 24 1.46875 23.7062 0.88125 23.1187C0.29375 22.5312 0 21.825 0 21V3C0 2.175 0.29375 1.46875 0.88125 0.88125C1.46875 0.29375 2.175 0 3 0H21C21.825 0 22.5312 0.29375 23.1187 0.88125C23.7062 1.46875 24 2.175 24 3V9.75L30 3.75V20.25L24 14.25V21C24 21.825 23.7062 22.5312 23.1187 23.1187C22.5312 23.7062 21.825 24 21 24H3V24M3 21H21V21V21V3V3V3H3V3V3V21V21V21V21M3 21V21V21V3V3V3V3V3V3V21V21V21V21V21" fill="#FFB59E"/>
</svg>
