<svg width="23" height="22" viewBox="0 0 23 22" fill="none" xmlns="http://www.w3.org/2000/svg">
<path d="M18.1654 7.98051L17.1103 5.15002L14.4542 3.71123L17.2847 2.65611L18.7235 1.77324e-06L19.7786 2.8305L22.4347 4.26928L19.6042 5.32441L18.1654 7.98051V7.98051M17.1888 21.9464L16.1337 19.1159L13.4776 17.6771L16.3081 16.622L17.7469 13.9659L18.802 16.7964L21.4581 18.2352L18.6276 19.2903L17.1888 21.9464V21.9464M7.42247 18.2562L5.31222 12.5952L1.24797e-05 9.71759L5.66101 7.60734L8.53858 2.29513L10.6488 7.95612L15.961 10.8337L10.3 12.9439L7.42247 18.2562V18.2562M7.76079 13.418L8.90833 11.343L11.1229 10.4954L9.04785 9.34783L8.20026 7.13331L7.05272 9.20832L4.8382 10.0559L6.9132 11.2034L7.76079 13.418V13.418M7.98052 10.2756V10.2756V10.2756V10.2756V10.2756V10.2756V10.2756V10.2756V10.2756V10.2756" fill="#FFB59E"/>
</svg>
