<svg width="28" height="30" viewBox="0 0 28 30" fill="none" xmlns="http://www.w3.org/2000/svg">
<path d="M13.4925 3.675C16.1425 3.675 18.6425 4.24375 20.9925 5.38125C23.3425 6.51875 25.305 8.1625 26.88 10.3125C27.055 10.5375 27.1112 10.7375 27.0487 10.9125C26.9862 11.0875 26.88 11.2375 26.73 11.3625C26.58 11.4875 26.405 11.5438 26.205 11.5312C26.005 11.5187 25.83 11.4125 25.68 11.2125C24.305 9.2625 22.5363 7.76875 20.3738 6.73125C18.2113 5.69375 15.9175 5.175 13.4925 5.175C11.0675 5.175 8.7925 5.69375 6.6675 6.73125C4.5425 7.76875 2.78 9.2625 1.38 11.2125C1.23 11.4375 1.055 11.5625 0.855 11.5875C0.655 11.6125 0.48 11.5625 0.33 11.4375C0.155 11.3125 0.04875 11.1562 0.01125 10.9688C-0.02625 10.7812 0.03 10.5875 0.18 10.3875C1.73 8.2625 3.67375 6.6125 6.01125 5.4375C8.34875 4.2625 10.8425 3.675 13.4925 3.675V3.675M13.4925 7.2C16.8675 7.2 19.7675 8.325 22.1925 10.575C24.6175 12.825 25.83 15.6125 25.83 18.9375C25.83 20.1875 25.3863 21.2313 24.4988 22.0688C23.6113 22.9063 22.53 23.325 21.255 23.325C19.98 23.325 18.8862 22.9063 17.9737 22.0688C17.0612 21.2313 16.605 20.1875 16.605 18.9375C16.605 18.1125 16.2987 17.4188 15.6862 16.8563C15.0737 16.2938 14.3425 16.0125 13.4925 16.0125C12.6425 16.0125 11.9112 16.2938 11.2987 16.8563C10.6862 17.4188 10.38 18.1125 10.38 18.9375C10.38 21.3625 11.0988 23.3875 12.5363 25.0125C13.9738 26.6375 15.83 27.775 18.105 28.425C18.33 28.5 18.48 28.625 18.555 28.8C18.63 28.975 18.6425 29.1625 18.5925 29.3625C18.5425 29.5375 18.4425 29.6875 18.2925 29.8125C18.1425 29.9375 17.955 29.975 17.73 29.925C15.13 29.275 13.005 27.9813 11.355 26.0438C9.705 24.1063 8.88 21.7375 8.88 18.9375C8.88 17.6875 9.33 16.6375 10.23 15.7875C11.13 14.9375 12.2175 14.5125 13.4925 14.5125C14.7675 14.5125 15.855 14.9375 16.755 15.7875C17.655 16.6375 18.105 17.6875 18.105 18.9375C18.105 19.7625 18.4175 20.4562 19.0425 21.0187C19.6675 21.5812 20.405 21.8625 21.255 21.8625C22.105 21.8625 22.83 21.5812 23.43 21.0187C24.03 20.4562 24.33 19.7625 24.33 18.9375C24.33 16.0375 23.2675 13.6 21.1425 11.625C19.0175 9.65 16.48 8.6625 13.53 8.6625C10.58 8.6625 8.0425 9.65 5.9175 11.625C3.7925 13.6 2.73 16.025 2.73 18.9C2.73 19.5 2.78625 20.25 2.89875 21.15C3.01125 22.05 3.28 23.1 3.705 24.3C3.78 24.525 3.77375 24.725 3.68625 24.9C3.59875 25.075 3.455 25.2 3.255 25.275C3.055 25.35 2.86125 25.3438 2.67375 25.2563C2.48625 25.1688 2.355 25.025 2.28 24.825C1.905 23.85 1.63625 22.8813 1.47375 21.9188C1.31125 20.9563 1.23 19.9625 1.23 18.9375C1.23 15.6125 2.43625 12.825 4.84875 10.575C7.26125 8.325 10.1425 7.2 13.4925 7.2V7.2M13.4925 0C15.0925 0 16.655 0.19375 18.18 0.58125C19.705 0.96875 21.18 1.525 22.605 2.25C22.83 2.375 22.9613 2.525 22.9988 2.7C23.0363 2.875 23.0175 3.05 22.9425 3.225C22.8675 3.4 22.7425 3.5375 22.5675 3.6375C22.3925 3.7375 22.18 3.725 21.93 3.6C20.605 2.925 19.2362 2.40625 17.8237 2.04375C16.4112 1.68125 14.9675 1.5 13.4925 1.5C12.0425 1.5 10.6175 1.66875 9.2175 2.00625C7.8175 2.34375 6.48 2.875 5.205 3.6C5.005 3.725 4.805 3.75625 4.605 3.69375C4.405 3.63125 4.255 3.5 4.155 3.3C4.055 3.1 4.03 2.91875 4.08 2.75625C4.13 2.59375 4.255 2.45 4.455 2.325C5.855 1.575 7.3175 1 8.8425 0.6C10.3675 0.2 11.9175 0 13.4925 0V0M13.4925 10.8375C15.8175 10.8375 17.8175 11.6187 19.4925 13.1812C21.1675 14.7437 22.005 16.6625 22.005 18.9375C22.005 19.1625 21.9362 19.3438 21.7987 19.4813C21.6612 19.6188 21.48 19.6875 21.255 19.6875C21.055 19.6875 20.88 19.6188 20.73 19.4813C20.58 19.3438 20.505 19.1625 20.505 18.9375C20.505 17.0625 19.8112 15.4937 18.4237 14.2312C17.0362 12.9687 15.3925 12.3375 13.4925 12.3375C11.5925 12.3375 9.96125 12.9687 8.59875 14.2312C7.23625 15.4937 6.555 17.0625 6.555 18.9375C6.555 20.9625 6.905 22.6812 7.605 24.0938C8.305 25.5063 9.33 26.925 10.68 28.35C10.83 28.5 10.905 28.675 10.905 28.875C10.905 29.075 10.83 29.25 10.68 29.4C10.53 29.55 10.355 29.625 10.155 29.625C9.955 29.625 9.78 29.55 9.63 29.4C8.155 27.85 7.02375 26.2687 6.23625 24.6562C5.44875 23.0438 5.055 21.1375 5.055 18.9375C5.055 16.6625 5.88 14.7437 7.53 13.1812C9.18 11.6187 11.1675 10.8375 13.4925 10.8375V10.8375M13.455 18.1875C13.68 18.1875 13.8612 18.2625 13.9987 18.4125C14.1362 18.5625 14.205 18.7375 14.205 18.9375C14.205 20.8125 14.88 22.35 16.23 23.55C17.58 24.75 19.155 25.35 20.955 25.35C21.105 25.35 21.3175 25.3375 21.5925 25.3125C21.8675 25.2875 22.155 25.25 22.455 25.2C22.68 25.15 22.8737 25.1813 23.0362 25.2938C23.1987 25.4063 23.305 25.575 23.355 25.8C23.405 26 23.3675 26.175 23.2425 26.325C23.1175 26.475 22.955 26.575 22.755 26.625C22.305 26.75 21.9112 26.8187 21.5737 26.8312C21.2362 26.8437 21.03 26.85 20.955 26.85C18.73 26.85 16.7988 26.1 15.1613 24.6C13.5238 23.1 12.705 21.2125 12.705 18.9375C12.705 18.7375 12.7738 18.5625 12.9113 18.4125C13.0488 18.2625 13.23 18.1875 13.455 18.1875V18.1875" fill="#FFB59E"/>
</svg>
